<svg width="24" height="24" viewBox="0 0 24 24" fill="none" xmlns="http://www.w3.org/2000/svg">
<path d="M12.7703 13.592L12.7703 13.592L12.7708 13.5892C12.8751 13.0127 12.9666 12.5605 13.0815 12.1994C13.196 11.8393 13.3319 11.5767 13.5209 11.3758C13.8994 10.9735 14.5144 10.7925 15.7056 10.6347L15.7066 10.6346C15.9154 10.6048 16.0678 10.4493 16.0678 10.2367C16.0678 10.0242 15.9154 9.8687 15.7066 9.83887L15.7057 9.83874C14.5231 9.68106 13.8912 9.49427 13.5025 9.08996C13.1121 8.68389 12.9492 8.0411 12.7713 6.90267C12.7411 6.70269 12.5862 6.55041 12.3814 6.55041C12.1733 6.55041 12.0168 6.68953 11.9767 6.89034L11.9766 6.89033L11.9763 6.89247C11.874 7.46882 11.7835 7.91994 11.6691 8.27956C11.5551 8.63818 11.4193 8.89894 11.2304 9.09835C10.8518 9.49804 10.2367 9.67701 9.04903 9.83878L9.04838 9.83887C8.83961 9.8687 8.68726 10.0242 8.68726 10.2367C8.68726 10.4527 8.84286 10.5955 9.04381 10.6338L9.04376 10.6341L9.05126 10.635C10.2337 10.769 10.8643 10.9485 11.2512 11.3547C11.4443 11.5574 11.5827 11.823 11.6943 12.1853C11.8062 12.5485 11.8894 13.0026 11.9758 13.5784L11.9757 13.5784L11.9767 13.5831C11.9959 13.6791 12.0403 13.7664 12.1108 13.8303C12.1822 13.895 12.2753 13.9309 12.3814 13.9309C12.5885 13.9309 12.7314 13.7767 12.7703 13.592ZM9.57741 14.9359L9.57743 14.9359L9.57776 14.934C9.5895 14.869 9.6003 14.8079 9.61046 14.7505C9.64509 14.5547 9.67226 14.4011 9.70398 14.2756C9.7447 14.1145 9.78945 14.0156 9.85466 13.9449C9.91922 13.8749 10.0137 13.822 10.1764 13.7747C10.3401 13.727 10.561 13.6881 10.8702 13.6389C11.0421 13.6153 11.1444 13.4742 11.1444 13.3197C11.1444 13.1619 11.0313 13.024 10.8707 13.0006C10.5612 12.9513 10.3401 12.9124 10.1763 12.8649C10.0135 12.8178 9.91884 12.7652 9.85428 12.696C9.78921 12.6263 9.74456 12.5289 9.70391 12.3702C9.67222 12.2465 9.64508 12.0952 9.61048 11.9022C9.60031 11.8455 9.58949 11.7852 9.57772 11.7209L9.57773 11.7209L9.57741 11.7193C9.5475 11.5697 9.43872 11.4344 9.25914 11.4344C9.17616 11.4344 9.10247 11.4628 9.04483 11.516C8.98864 11.5679 8.95319 11.6381 8.93405 11.7146L8.9339 11.7146L8.93285 11.7201C8.91828 11.7962 8.90519 11.8666 8.89302 11.932C8.86019 12.1085 8.83414 12.2486 8.80433 12.3645C8.76385 12.5219 8.72012 12.6182 8.65592 12.6874C8.59221 12.7562 8.49844 12.8089 8.3356 12.8574C8.172 12.9062 7.95053 12.9475 7.63957 13.0006C7.46803 13.0245 7.36598 13.1653 7.36598 13.3197C7.36598 13.4017 7.38948 13.4797 7.44648 13.5399C7.50227 13.5988 7.57937 13.6292 7.66503 13.639C7.96988 13.6863 8.18648 13.7237 8.34626 13.77C8.50505 13.8161 8.59605 13.8678 8.65806 13.9363C8.72104 14.0059 8.76428 14.1038 8.80455 14.2643C8.83384 14.3811 8.85961 14.5218 8.89193 14.6983C8.90439 14.7664 8.91782 14.8397 8.9328 14.9191L8.93263 14.9191L8.93405 14.9248C8.95259 14.9989 8.98519 15.0697 9.04094 15.1225C9.09884 15.1774 9.17348 15.205 9.25914 15.205C9.41957 15.205 9.545 15.0979 9.57741 14.9359ZM4.17066 17.5015H19.8372C20.5583 17.5015 21.1281 17.3079 21.5173 16.9176C21.9065 16.5274 22.1 15.9557 22.1 15.2308V6.17066C22.1 5.44579 21.9065 4.87406 21.5173 4.48385C21.1281 4.09359 20.5583 3.9 19.8372 3.9H4.17066C3.44579 3.9 2.87399 4.09351 2.48375 4.48375C2.09351 4.87399 1.9 5.44579 1.9 6.17066V15.2308C1.9 15.9557 2.09351 16.5275 2.48375 16.9177C2.87399 17.308 3.44579 17.5015 4.17066 17.5015ZM4.25718 15.7993C4.02013 15.7993 3.86149 15.7419 3.76135 15.6425C3.66135 15.5433 3.60216 15.3849 3.60216 15.1443V6.25718C3.60216 6.01659 3.66135 5.85817 3.76135 5.75895C3.86149 5.65959 4.02013 5.60216 4.25718 5.60216H19.7428C19.9799 5.60216 20.1385 5.65959 20.2387 5.75895C20.3386 5.85817 20.3978 6.01659 20.3978 6.25718V15.1443C20.3978 15.3849 20.3386 15.5433 20.2387 15.6425C20.1385 15.7419 19.9799 15.7993 19.7428 15.7993H4.25718ZM7.97719 20.2463H16.0228C16.4706 20.2463 16.8385 19.8798 16.8385 19.4385C16.8385 18.99 16.4713 18.6228 16.0228 18.6228H7.97719C7.52729 18.6228 7.16937 18.9914 7.16937 19.4385C7.16937 19.8783 7.52801 20.2463 7.97719 20.2463Z" fill="#1C2C43" stroke="#1C2C43" stroke-width="0.2"/>
</svg>
