<svg width="24" height="24" viewBox="0 0 24 24" fill="none" xmlns="http://www.w3.org/2000/svg">
<path d="M12 1.80005L0.572308 6.56313L0 6.82159V22.2H24V6.82159L23.4277 6.56313L12 1.80005ZM11.0769 4.19082V12.037H1.84615V8.05851L4.61538 6.90466V8.34466H8.30769V6.49851H5.56615L11.0769 4.19082ZM12.9231 4.19082L18.4338 6.49851H15.6923V8.34466H19.3846V6.90466L22.1538 8.05851V12.037H12.9231V4.19082ZM1.84615 13.8831H11.0769V20.3447H1.84615V13.8831ZM12.9231 13.8831H22.1538V20.3447H12.9231V13.8831ZM4.61538 14.8062V16.6524H8.30769V14.8062H4.61538ZM15.6923 14.8062V16.6524H19.3846V14.8062H15.6923Z" fill="#1C2C43"/>
</svg>
