<svg width="122" height="30" viewBox="0 0 122 30" fill="none" xmlns="http://www.w3.org/2000/svg">
<g clip-path="url(#clip0_4_8)">
<path fill-rule="evenodd" clip-rule="evenodd" d="M17.2325 7.26799H23.6883C25.6708 7.26799 27.2467 5.61851 27.2467 3.65974V0.0514984H20.7908C18.8083 0.0514984 17.2325 1.70098 17.2325 3.65974V7.26799Z" fill="#FFAD3A"/>
<path fill-rule="evenodd" clip-rule="evenodd" d="M0 14.5361H10.065L13.6233 7.26804H10.065H3.55833C1.57583 7.26804 0 8.91752 0 10.8763V14.5361Z" fill="#15DBED"/>
<path fill-rule="evenodd" clip-rule="evenodd" d="M17.2325 26.3402V14.4845V10.8762L10.065 14.4845V29.9484H13.6233C15.6058 30 17.2325 28.3505 17.2325 26.3402Z" fill="#21A3FC"/>
<path fill-rule="evenodd" clip-rule="evenodd" d="M10.065 14.536H13.6233C15.6058 14.536 17.1816 12.8865 17.1816 10.9278V7.31954H13.6233C11.6408 7.31954 10.065 8.96903 10.065 10.9278V14.536Z" fill="#0047AB"/>
<path d="M45.6992 7.78345V11.134H39.8026V29.0721H36.3459V11.134H30.3984V7.78345H45.6992Z" fill="#1C2C43"/>
<path d="M57.2383 13.866H60.4916V29.0722H57.2383V26.8557C56.0183 28.5567 54.2899 29.433 52.0025 29.433C49.9183 29.433 48.19 28.6598 46.7158 27.1134C45.2416 25.567 44.53 23.6598 44.53 21.4433C44.53 19.1753 45.2416 17.268 46.7158 15.7732C48.19 14.2268 49.9183 13.4536 52.0025 13.4536C54.2899 13.4536 56.0183 14.3299 57.2383 16.0309V13.866ZM49.105 24.9485C50.02 25.8763 51.1383 26.3402 52.5108 26.3402C53.8833 26.3402 55.0016 25.8763 55.9166 24.9485C56.8316 24.0206 57.2891 22.8866 57.2891 21.4433C57.2891 20.0515 56.8316 18.866 55.9166 17.9381C55.0016 17.0103 53.8833 16.5464 52.5108 16.5464C51.1383 16.5464 50.02 17.0103 49.105 17.9381C48.19 18.866 47.7325 20 47.7325 21.4433C47.7833 22.8866 48.19 24.0206 49.105 24.9485Z" fill="#1C2C43"/>
<path d="M74.4707 13.8659H78.029L72.1323 29.0721H68.3707L62.5249 13.8659H66.0832L70.3024 25.4638L74.4707 13.8659Z" fill="#1C2C43"/>
<path d="M86.5182 29.4845C84.3323 29.4845 82.4515 28.7113 80.9265 27.1649C79.4015 25.6185 78.639 23.7113 78.639 21.4948C78.639 19.2268 79.4015 17.3195 80.9265 15.8247C82.4515 14.2783 84.3323 13.5051 86.5182 13.5051C88.7548 13.5051 90.6357 14.2783 92.1607 15.8247C93.6857 17.3711 94.4482 19.2783 94.4482 21.4948C94.4482 23.7628 93.6857 25.67 92.1607 27.1649C90.6357 28.7113 88.7548 29.4845 86.5182 29.4845ZM83.214 24.8969C84.129 25.8247 85.2474 26.2886 86.569 26.2886C87.8907 26.2886 89.009 25.8247 89.924 24.8969C90.839 23.969 91.2965 22.835 91.2965 21.4432C91.2965 20.0515 90.839 18.9175 89.924 17.9896C89.009 17.0618 87.8907 16.5979 86.569 16.5979C85.2474 16.5979 84.129 17.0618 83.214 17.9896C82.299 18.9175 81.8415 20.0515 81.8415 21.4432C81.8415 22.835 82.299 24.0206 83.214 24.8969Z" fill="#1C2C43"/>
<path d="M100.65 16.3917C101.463 14.4844 102.988 13.5566 105.276 13.5566V17.1133C104.056 17.0102 102.937 17.3195 102.022 17.9896C101.107 18.6597 100.65 19.7937 100.65 21.3401V29.0205H97.3965V13.8659H100.65V16.3917Z" fill="#1C2C43"/>
<path d="M114.07 29.4845C111.884 29.4845 110.003 28.7113 108.478 27.1649C106.953 25.6185 106.191 23.7113 106.191 21.4948C106.191 19.2268 106.953 17.3195 108.478 15.8247C110.003 14.2783 111.884 13.5051 114.07 13.5051C116.307 13.5051 118.187 14.2783 119.712 15.8247C121.237 17.3711 122 19.2783 122 21.4948C122 23.7628 121.237 25.67 119.712 27.1649C118.187 28.7113 116.307 29.4845 114.07 29.4845ZM110.715 24.8969C111.63 25.8247 112.748 26.2886 114.07 26.2886C115.392 26.2886 116.51 25.8247 117.425 24.8969C118.34 23.969 118.797 22.835 118.797 21.4432C118.797 20.0515 118.34 18.9175 117.425 17.9896C116.51 17.0618 115.392 16.5979 114.07 16.5979C112.748 16.5979 111.63 17.0618 110.715 17.9896C109.8 18.9175 109.342 20.0515 109.342 21.4432C109.393 22.835 109.851 24.0206 110.715 24.8969Z" fill="#1C2C43"/>
</g>
<defs>
<clipPath id="clip0_4_8">
<rect width="122" height="30" fill="white"/>
</clipPath>
</defs>
</svg>
