<svg width="24" height="24" viewBox="0 0 24 24" fill="none" xmlns="http://www.w3.org/2000/svg">
<path fill-rule="evenodd" clip-rule="evenodd" d="M3.89996 4.39996C3.89996 4.12381 4.12381 3.89996 4.39996 3.89996H15.4908L13.7845 5.60628H10.7253H9.01895H7.31263H5.60628H3.89996V4.39996ZM7.31263 7.31263H9.01895V10.3718L7.31263 12.0781V7.31263ZM10.7253 7.31263V8.66545L12.0781 7.31263H10.7253ZM3.89996 7.31263V15.4908L5.60628 13.7845V7.31263H3.89996ZM3.89996 17.9039V18.7571C3.89996 19.0331 4.12361 19.2569 4.39958 19.2571L19.2571 4.39958C19.2569 4.12361 19.0331 3.89996 18.7571 3.89996H17.9039L3.89996 17.9039ZM10.207 19.2571H6.81272L8.51914 17.5507H10.0002C10.0001 17.5338 10 17.5169 10 17.5C10 13.3579 13.3579 10 17.5 10C17.5169 10 17.5338 10.0001 17.5507 10.0002V8.51914L19.2571 6.81272V10.207C19.8572 10.351 20.4292 10.5672 20.9635 10.8459V3.47337C20.9635 2.76657 20.3905 2.1936 19.6837 2.1936H3.47337C2.76657 2.1936 2.1936 2.76657 2.1936 3.47337V19.6837C2.1936 20.3905 2.76657 20.9635 3.47337 20.9635H10.8459C10.5672 20.4292 10.351 19.8572 10.207 19.2571Z" fill="#194185"/>
<path d="M16.8125 11.925H16.7375V12V13.4461C16.1484 13.5252 15.5664 13.782 15.1022 14.1024L14.1155 13.1157L14.0625 13.0627L14.0095 13.1157L13.047 14.0782L12.9921 14.1331L13.0488 14.1861L14.0352 15.1067C13.7163 15.63 13.5183 16.155 13.3838 16.7375H12H11.925V16.8125V18.1875V18.2625H12H13.3774C13.4565 18.8516 13.7132 19.4336 14.0337 19.8978L13.047 20.8845L12.9939 20.9375L13.047 20.9905L14.0095 21.953L14.0625 22.0061L14.1155 21.953L15.1048 20.9637C15.6287 21.2832 16.1544 21.4815 16.7375 21.6162V23V23.075H16.8125H18.1875H18.2625V23V21.6226C18.8516 21.5435 19.4336 21.2868 19.8978 20.9663L20.8845 21.953L20.9375 22.0061L20.9905 21.953L21.953 20.9905L22.0061 20.9375L21.953 20.8845L20.9637 19.8952C21.2832 19.3713 21.4815 18.8456 21.6162 18.2625H23H23.075V18.1875V16.8125V16.7375H23H21.6226C21.5435 16.1484 21.2868 15.5664 20.9663 15.1022L21.953 14.1155L22.0061 14.0625L21.953 14.0095L20.9905 13.047L20.9375 12.9939L20.8845 13.047L19.8952 14.0363C19.3713 13.7168 18.8456 13.5185 18.2625 13.3838V12V11.925H18.1875H16.8125ZM17.5 14.825C18.9711 14.825 20.175 16.0289 20.175 17.5C20.175 18.9711 18.9711 20.175 17.5 20.175C16.0289 20.175 14.825 18.9711 14.825 17.5C14.825 16.0289 16.0289 14.825 17.5 14.825ZM17.5 16.05C16.7023 16.05 16.05 16.7023 16.05 17.5C16.05 18.2977 16.7023 18.95 17.5 18.95C18.2977 18.95 18.95 18.2977 18.95 17.5C18.95 16.7023 18.2977 16.05 17.5 16.05Z" fill="#1C2C43" stroke="#1C2C43" stroke-width="0.15"/>
</svg>
