<svg height="77.570267" viewBox="0 0 71.504005 77.570267" width="71.504005" xmlns="http://www.w3.org/2000/svg" xmlns:xlink="http://www.w3.org/1999/xlink"><clipPath id="a"><path d="m0 792h612v-792h-612z"/></clipPath><g clip-path="url(#a)" fill-rule="evenodd" transform="matrix(1.3333333 0 0 -1.3333333 -372.00052 566.66665)"><path d="m0 0h12.732c3.874 0 7.041 3.168 7.039 7.042l-.004 7.043h-12.734c-3.874 0-7.04-3.168-7.038-7.043z" fill="#ffad3a" transform="translate(312.8574 410.915)"/><path d="m0 0h19.776l7.034 14.085h-7.043-12.733c-3.875 0-7.041-3.169-7.038-7.043z" fill="#15dbed" transform="translate(279.0044 396.8296)"/><path d="m0 0-.016 22.965-.004 6.984-14.081-6.984.02-30.007h7.042c3.875 0 7.041 3.168 7.039 7.042" fill="#21a3fc" transform="translate(312.8818 373.8643)"/><path d="m0 0h7.042c3.875 0 7.041 3.168 7.04 7.042l-.005 7.043h-7.043c-3.874 0-7.041-3.168-7.038-7.043z" fill="#0047ab" transform="translate(298.7808 396.8301)"/></g></svg>